<?xml version="1.0" standalone="no"?>
<!DOCTYPE svg PUBLIC "-//W3C//DTD SVG 20010904//EN"
 "http://www.w3.org/TR/2001/REC-SVG-20010904/DTD/svg10.dtd">
<svg version="1.0" xmlns="http://www.w3.org/2000/svg"
 width="720.000000pt" height="720.000000pt" viewBox="0 0 720.000000 720.000000"
 preserveAspectRatio="xMidYMid meet">
<metadata>
Created by potrace 1.11, written by Peter Selinger 2001-2013
</metadata>
<g transform="translate(0.000000,720.000000) scale(0.100000,-0.100000)"
fill="#000000" stroke="none">
<path d="M3340 6853 c-47 -4 -247 -30 -290 -38 -13 -3 -42 -7 -63 -10 -37 -6
-253 -59 -342 -85 -140 -40 -392 -143 -540 -220 -316 -165 -567 -350 -816
-602 -280 -282 -505 -605 -656 -943 -19 -44 -44 -98 -53 -120 -76 -171 -173
-524 -206 -750 -3 -22 -7 -51 -9 -64 -27 -164 -27 -680 0 -846 10 -62 15 -91
20 -130 4 -22 8 -47 10 -55 2 -8 7 -28 10 -45 2 -16 16 -75 30 -130 14 -55 27
-109 30 -119 2 -11 21 -69 41 -130 206 -621 613 -1183 1142 -1579 147 -110
218 -155 447 -282 75 -42 304 -140 430 -185 106 -37 334 -100 412 -115 15 -2
37 -7 48 -9 20 -4 126 -20 195 -31 187 -27 667 -28 844 0 77 12 173 28 186 30
677 140 1230 433 1690 895 366 368 622 776 784 1249 47 137 111 377 122 458 3
27 7 50 9 53 2 3 6 29 10 59 4 30 8 62 10 73 27 137 27 707 0 832 -2 12 -7 43
-10 70 -34 287 -182 749 -323 1006 -13 25 -40 74 -60 110 -45 84 -171 277
-230 355 -274 360 -610 657 -987 873 -135 77 -151 85 -269 139 -343 155 -676
243 -1071 282 -84 9 -444 11 -545 4z m432 -307 c51 -4 107 -9 123 -11 17 -3
48 -7 70 -10 235 -32 519 -109 739 -201 83 -35 281 -135 333 -167 24 -15 45
-27 47 -27 8 0 157 -101 236 -159 81 -60 195 -157 274 -233 l49 -47 -500 -500
-500 -500 -57 84 c-102 150 -231 252 -348 273 -38 8 -59 5 -120 -15 -40 -14
-80 -26 -88 -28 -26 -6 -214 -66 -235 -75 -11 -5 -47 -16 -80 -26 -33 -9 -64
-21 -70 -26 -6 -6 -10 -221 -10 -601 l0 -593 -50 -52 c-27 -29 -53 -52 -57
-52 -4 0 -9 293 -10 651 l-3 651 -125 40 c-444 141 -421 135 -480 123 -241
-49 -458 -369 -606 -890 -33 -116 -29 -97 -65 -275 -31 -149 -32 -159 -21
-248 28 -216 171 -535 387 -860 l48 -71 -588 -588 -588 -587 -69 74 c-334 362
-568 785 -693 1255 -32 120 -52 214 -60 281 -3 27 -8 58 -10 69 -2 11 -7 47
-10 80 -3 33 -8 80 -10 105 -16 157 -2 499 26 665 6 33 12 69 13 80 24 144 95
396 153 540 272 685 772 1236 1418 1560 88 44 176 86 195 93 19 8 44 17 55 22
154 65 481 151 666 175 95 12 118 14 219 21 58 4 106 7 107 8 4 3 214 -3 295
-8z m2056 -1044 c337 -376 551 -773 681 -1262 11 -42 23 -91 26 -110 3 -19 8
-46 10 -60 12 -58 15 -77 21 -120 3 -25 8 -54 10 -65 24 -127 24 -647 -1 -745
-2 -8 -6 -37 -10 -65 -3 -27 -13 -84 -22 -125 -8 -41 -17 -83 -18 -92 -18 -89
-103 -359 -144 -453 -10 -22 -26 -60 -36 -85 -87 -210 -297 -540 -467 -735
-284 -325 -683 -616 -1063 -774 -44 -19 -93 -39 -110 -46 -132 -57 -452 -139
-640 -165 -229 -31 -614 -34 -786 -5 -13 2 -42 6 -64 10 -187 27 -430 91 -614
162 -354 136 -652 321 -942 583 -43 40 -79 76 -79 82 0 5 123 133 274 284
l274 274 525 0 c513 0 525 0 550 20 32 26 44 79 27 121 -25 59 -28 59 -486 59
l-417 0 58 58 58 57 1570 5 1569 5 24 30 c42 52 27 123 -33 154 -16 8 -424 11
-1474 11 l-1452 0 61 60 60 60 722 0 c773 0 763 -1 790 49 26 49 4 114 -47
140 -15 8 -205 11 -644 11 l-622 0 56 55 55 55 872 2 872 3 25 30 c34 42 28
109 -14 142 l-28 23 -764 0 -765 0 62 60 61 60 765 0 764 0 31 31 c50 50 38
125 -26 158 -15 8 -214 11 -679 11 l-656 0 70 70 71 70 965 2 965 3 22 21 c13
13 23 39 26 65 3 36 0 50 -20 74 l-25 30 -866 3 -867 2 69 70 68 70 613 2 613
3 25 30 c34 42 28 109 -14 142 l-28 23 -497 0 c-274 0 -498 3 -498 6 0 3 29
35 64 70 l64 64 545 0 545 0 31 29 c51 48 38 127 -26 160 -15 8 -155 11 -452
11 -237 0 -431 3 -431 6 0 11 1095 1103 1107 1103 6 1 47 -39 91 -87z"/>
<path d="M3407 6099 c-193 -55 -334 -197 -387 -392 -18 -66 -20 -99 -18 -318
l3 -244 136 -46 c288 -97 420 -115 572 -78 43 10 88 21 100 23 25 5 298 89
340 105 30 12 30 11 17 66 -23 99 -41 228 -46 320 -10 193 -57 309 -169 420
-148 146 -353 200 -548 144z"/>
<path d="M1494 5468 c-38 -18 -60 -80 -44 -123 5 -13 31 -47 59 -77 27 -29 59
-65 71 -78 20 -23 60 -67 255 -280 33 -36 84 -92 114 -125 239 -266 245 -270
314 -241 35 14 64 56 61 86 -1 8 -2 20 -3 26 -1 14 -46 71 -109 140 -85 92
-228 248 -273 298 -24 27 -55 61 -69 76 -14 15 -59 64 -100 110 -158 178 -183
200 -221 199 -19 0 -44 -5 -55 -11z"/>
<path d="M991 3684 c-13 -9 -29 -32 -37 -50 -12 -29 -12 -39 0 -68 29 -69 5
-66 568 -66 358 0 514 3 532 11 14 7 33 28 42 47 14 29 14 41 4 72 -24 72 -7
70 -577 70 -454 0 -511 -2 -532 -16z"/>
<path d="M5140 3443 c-12 -8 -28 -31 -36 -49 -12 -29 -12 -39 0 -68 28 -68 24
-67 411 -64 l347 3 24 28 c37 43 33 100 -8 138 l-33 29 -341 0 c-294 -1 -344
-3 -364 -17z"/>
<path d="M4408 2810 c-52 -41 -53 -119 -1 -160 26 -20 33 -21 461 -18 l434 3
24 28 c32 38 32 92 0 132 l-24 30 -434 3 c-423 3 -435 2 -460 -18z"/>
<path d="M3370 2177 c-61 -30 -69 -117 -14 -165 l26 -22 785 2 785 3 24 30
c42 52 27 123 -33 154 -33 17 -1539 15 -1573 -2z"/>
</g>
</svg>
